<svg width="23" height="23" viewBox="0 0 23 23" fill="none" xmlns="http://www.w3.org/2000/svg">
<path d="M6.2449 16.3813C3.44947 13.5859 3.44947 9.04156 6.2449 6.24613C9.04033 3.4507 13.5847 3.4507 16.3801 6.24613C19.1755 9.04156 19.1755 13.5859 16.3801 16.3813C13.5847 19.1768 9.04033 19.1768 6.2449 16.3813ZM15.673 6.95323C13.2688 4.54907 9.35617 4.54907 6.95201 6.95323C4.54785 9.3574 4.54785 13.2701 6.95201 15.6742C9.35617 18.0784 13.2688 18.0784 15.673 15.6742C18.0772 13.2701 18.0772 9.3574 15.673 6.95323Z" fill="#417F56"/>
<path d="M8.2908 11.6672C8.20123 11.5777 8.14466 11.4551 8.14466 11.3137C8.14466 11.0403 8.37094 10.814 8.64435 10.814H13.9806C14.2541 10.814 14.4803 11.0403 14.4803 11.3137C14.4803 11.5871 14.2541 11.8134 13.9806 11.8134H8.64435C8.50764 11.8181 8.38036 11.7568 8.2908 11.6672Z" fill="#417F56"/>
<path d="M10.9589 14.3354C10.8694 14.2458 10.8128 14.1233 10.8128 13.9818L10.8128 8.64555C10.8128 8.37213 11.0391 8.14586 11.3125 8.14586C11.5859 8.14586 11.8122 8.37213 11.8122 8.64555L11.8122 13.9818C11.8122 14.2553 11.5859 14.4815 11.3125 14.4815C11.1711 14.4815 11.0485 14.425 10.9589 14.3354Z" fill="#417F56"/>
</svg>
